advent_pro_reg.ufo
<glyph name="parenleft" format="1">
  <advance width="181"/>
  <unicode hex="0028"/>
  <outline>
    <contour>
      <point x="164" y="778" type="line"/>
      <point x="118.572" y="745.933"/>
      <point x="97" y="695.441"/>
      <point x="97" y="635" type="curve" smooth="yes"/>
      <point x="97" y="442.5"/>
      <point x="97" y="253.75"/>
      <point x="97" y="62" type="curve" smooth="yes"/>
      <point x="97" y="-0.945625"/>
      <point x="118.679" y="-49.0088"/>
      <point x="164" y="-81" type="curve"/>
      <point x="146" y="-119" type="line"/>
      <point x="94.9736" y="-81.4016"/>
      <point x="41" y="-57.623"/>
      <point x="41" y="70" type="curve" smooth="yes"/>
      <point x="41" y="625" type="line" smooth="yes"/>
      <point x="41" y="725.588"/>
      <point x="75.4901" y="776.723"/>
      <point x="146" y="815" type="curve"/>
    </contour>
  </outline>
</glyph>
<glyph name="one" format="1">
  <advance width="235"/>
  <unicode hex="0031"/>
  <outline>
    <contour>
      <point x="13" y="620" type="line"/>
      <point x="10.4167" y="619.75"/>
      <point x="94.0834" y="641.25"/>
      <point x="138" y="698" type="curve"/>
      <point x="192" y="698" type="line"/>
      <point x="192" y="0" type="line"/>
      <point x="139" y="0" type="line"/>
      <point x="139" y="632" type="line"/>
      <point x="114.876" y="613.907"/>
      <point x="60.5571" y="584.948"/>
      <point x="27" y="581" type="curve"/>
    </contour>
  </outline>
</glyph>
<glyph name="two" format="1">
  <advance width="412"/>
  <unicode hex="0032"/>
  <outline>
    <contour>
      <point x="42" y="588" type="line"/>
      <point x="72.6667" y="670.667"/>
      <point x="140.333" y="706.667"/>
      <point x="207" y="708" type="curve" smooth="yes"/>
      <point x="291.75" y="709.971"/>
      <point x="378.977" y="649.833"/>
      <point x="377" y="549" type="curve"/>
      <point x="377" y="509"/>
      <point x="363.333" y="464.667"/>
      <point x="322" y="394" type="curve"/>
      <point x="245.808" y="279.712"/>
      <point x="169.846" y="166.769"/>
      <point x="94" y="53" type="curve"/>
      <point x="378" y="53" type="line"/>
      <point x="378" y="0" type="line"/>
      <point x="29" y="0" type="line"/>
      <point x="29" y="53" type="line"/>
      <point x="109" y="175.667"/>
      <point x="196.667" y="295.667"/>
      <point x="274" y="425" type="curve" smooth="yes"/>
      <point x="312.395" y="487.645"/>
      <point x="318" y="507.834"/>
      <point x="318" y="539" type="curve" smooth="yes"/>
      <point x="318" y="612.729"/>
      <point x="263.569" y="655.985"/>
      <point x="206" y="654" type="curve"/>
      <point x="160.667" y="654"/>
      <point x="116.667" y="627.667"/>
      <point x="94" y="569" type="curve"/>
    </contour>
  </outline>
</glyph>
<glyph name="six" format="1">
  <advance width="482"/>
  <unicode hex="0036"/>
  <outline>
    <contour>
      <point x="271" y="646" type="line" smooth="yes"/>
      <point x="155" y="646"/>
      <point x="86" y="566"/>
      <point x="86" y="453" type="curve" smooth="yes"/>
      <point x="86" y="346" type="line"/>
      <point x="127.829" y="391.812"/>
      <point x="181.154" y="414"/>
      <point x="241" y="414" type="curve" smooth="yes"/>
      <point x="360" y="414"/>
      <point x="456" y="322"/>
      <point x="456" y="202" type="curve" smooth="yes"/>
      <point x="456" y="85"/>
      <point x="361" y="-10"/>
      <point x="244" y="-10" type="curve" smooth="yes"/>
      <point x="126" y="-10"/>
      <point x="31" y="84"/>
      <point x="31" y="202" type="curve" smooth="yes"/>
      <point x="31" y="460" type="line" smooth="yes"/>
      <point x="31" y="602"/>
      <point x="133" y="698"/>
      <point x="275" y="698" type="curve" smooth="yes"/>
      <point x="310" y="698" type="line"/>
      <point x="310" y="646" type="line"/>
    </contour>
    <contour>
      <point x="244" y="359" type="curve" smooth="yes"/>
      <point x="158.017" y="359"/>
      <point x="86" y="287.317"/>
      <point x="86" y="202" type="curve" smooth="yes"/>
      <point x="86" y="116.683"/>
      <point x="158.017" y="45"/>
      <point x="244" y="45" type="curve" smooth="yes"/>
      <point x="329.317" y="45"/>
      <point x="401" y="116.683"/>
      <point x="401" y="202" type="curve" smooth="yes"/>
      <point x="401" y="287.317"/>
      <point x="329.317" y="359"/>
    </contour>
  </outline>
</glyph>
<glyph name="at" format="1">
  <advance width="717"/>
  <unicode hex="0040"/>
  <outline>
    <contour>
      <point x="688" y="450" type="line"/>
      <point x="664.872" y="439.487"/>
      <point x="654" y="418"/>
      <point x="654" y="380" type="curve" smooth="yes"/>
      <point x="655" y="170" type="line" smooth="yes"/>
      <point x="656" y="2"/>
      <point x="502.381" y="-66"/>
      <point x="340" y="-66" type="curve" smooth="yes"/>
      <point x="183.082" y="-66"/>
      <point x="33" y="11"/>
      <point x="32" y="183" type="curve" smooth="yes"/>
      <point x="31" y="338" type="line" smooth="yes"/>
      <point x="30" y="477"/>
      <point x="122.083" y="577"/>
      <point x="284" y="577" type="curve" smooth="yes"/>
      <point x="427.567" y="577"/>
      <point x="494.124" y="515.425"/>
      <point x="510" y="442" type="curve"/>
      <point x="577" y="442" type="line"/>
      <point x="564" y="388" type="line"/>
      <point x="514" y="388" type="line"/>
      <point x="514" y="69" type="line"/>
      <point x="515.007" y="68.8954"/>
      <point x="394" y="62"/>
      <point x="348" y="61" type="curve" smooth="yes"/>
      <point x="253" y="58"/>
      <point x="155" y="83.4308"/>
      <point x="155" y="233" type="curve" smooth="yes"/>
      <point x="155" y="288" type="line" smooth="yes"/>
      <point x="155" y="404.617"/>
      <point x="222.7" y="442"/>
      <point x="296" y="442" type="curve" smooth="yes"/>
      <point x="462" y="442" type="line"/>
      <point x="444.667" y="496.667"/>
      <point x="380.333" y="529"/>
      <point x="287" y="529" type="curve" smooth="yes"/>
      <point x="175.312" y="529"/>
      <point x="91" y="465.364"/>
      <point x="91" y="341" type="curve" smooth="yes"/>
      <point x="91" y="189" type="line" smooth="yes"/>
      <point x="91" y="43.9667"/>
      <point x="196.017" y="-11"/>
      <point x="348" y="-11" type="curve" smooth="yes"/>
      <point x="474.017" y="-11"/>
      <point x="599" y="34.7879"/>
      <point x="599" y="162" type="curve" smooth="yes"/>
      <point x="599" y="363" type="line" smooth="yes"/>
      <point x="599" y="432.561"/>
      <point x="616.003" y="474.715"/>
      <point x="673" y="491" type="curve"/>
    </contour>
    <contour>
      <point x="293" y="388" type="line" smooth="yes"/>
      <point x="263.333" y="388"/>
      <point x="208" y="382.917"/>
      <point x="208" y="285" type="curve" smooth="yes"/>
      <point x="208" y="227" type="line" smooth="yes"/>
      <point x="208" y="152.333"/>
      <point x="248" y="111"/>
      <point x="328" y="111" type="curve" smooth="yes"/>
      <point x="398" y="111"/>
      <point x="467.673" y="119.889"/>
      <point x="467" y="119" type="curve"/>
      <point x="467" y="388" type="line"/>
    </contour>
  </outline>
</glyph>
<glyph name="B" format="1">
  <advance width="503"/>
  <unicode hex="0042"/>
  <outline>
    <contour>
      <point x="261" y="698" type="line" smooth="yes"/>
      <point x="373" y="698"/>
      <point x="438" y="642.667"/>
      <point x="438" y="528" type="curve" smooth="yes"/>
      <point x="438" y="468"/>
      <point x="414" y="422.333"/>
      <point x="370" y="393" type="curve"/>
      <point x="370" y="389" type="line"/>
      <point x="428.667" y="363.667"/>
      <point x="474" y="304"/>
      <point x="474" y="208" type="curve" smooth="yes"/>
      <point x="474" y="77.349"/>
      <point x="403.945" y="0"/>
      <point x="271" y="0" type="curve" smooth="yes"/>
      <point x="41" y="0" type="line"/>
      <point x="41" y="698" type="line"/>
    </contour>
    <contour>
      <point x="260" y="411" type="line" smooth="yes"/>
      <point x="341.133" y="411"/>
      <point x="379" y="457.65"/>
      <point x="379" y="528" type="curve" smooth="yes"/>
      <point x="379" y="606.667"/>
      <point x="337" y="645"/>
      <point x="253" y="645" type="curve" smooth="yes"/>
      <point x="97" y="645" type="line"/>
      <point x="97" y="411" type="line"/>
    </contour>
    <contour>
      <point x="269" y="53" type="line" smooth="yes"/>
      <point x="365" y="53"/>
      <point x="414" y="105.55"/>
      <point x="414" y="212" type="curve" smooth="yes"/>
      <point x="414" y="290.011"/>
      <point x="368.417" y="356"/>
      <point x="285" y="356" type="curve" smooth="yes"/>
      <point x="97" y="356" type="line"/>
      <point x="97" y="53" type="line"/>
    </contour>
  </outline>
</glyph>
<glyph name="C" format="1">
  <advance width="423"/>
  <unicode hex="0043"/>
  <outline>
    <contour>
      <point x="354" y="639" type="line"/>
      <point x="317" y="654"/>
      <point x="282" y="660"/>
      <point x="247" y="660" type="curve" smooth="yes"/>
      <point x="149" y="660"/>
      <point x="91" y="619"/>
      <point x="91" y="514" type="curve" smooth="yes"/>
      <point x="91" y="186" type="line" smooth="yes"/>
      <point x="91" y="81"/>
      <point x="138" y="40"/>
      <point x="239" y="40" type="curve" smooth="yes"/>
      <point x="278" y="40"/>
      <point x="328" y="51"/>
      <point x="384" y="69" type="curve"/>
      <point x="396" y="23" type="line"/>
      <point x="340" y="1"/>
      <point x="286" y="-10"/>
      <point x="235" y="-10" type="curve" smooth="yes"/>
      <point x="109" y="-10"/>
      <point x="34" y="50"/>
      <point x="34" y="184" type="curve" smooth="yes"/>
      <point x="34" y="510" type="line" smooth="yes"/>
      <point x="34" y="650"/>
      <point x="119" y="710"/>
      <point x="229" y="710" type="curve" smooth="yes"/>
      <point x="281" y="710"/>
      <point x="329" y="699"/>
      <point x="371" y="677" type="curve"/>
    </contour>
  </outline>
</glyph>
<glyph name="J" format="1">
  <advance width="206"/>
  <unicode hex="004A"/>
  <outline>
    <contour>
      <point x="165" y="118" type="line" smooth="yes"/>
      <point x="165" y="37"/>
      <point x="132" y="-37"/>
      <point x="40" y="-37" type="curve"/>
      <point x="27" y="0" type="line"/>
      <point x="71" y="0"/>
      <point x="108" y="34.3333"/>
      <point x="108" y="113" type="curve" smooth="yes"/>
      <point x="108" y="647" type="line"/>
      <point x="42" y="649" type="line"/>
      <point x="42" y="698" type="line"/>
      <point x="165" y="698" type="line"/>
    </contour>
  </outline>
</glyph>
<glyph name="P" format="1">
  <advance width="504"/>
  <unicode hex="0050"/>
  <outline>
    <contour>
      <point x="276" y="698" type="line" smooth="yes"/>
      <point x="402.874" y="698"/>
      <point x="474" y="642.823"/>
      <point x="474" y="472" type="curve" smooth="yes"/>
      <point x="474" y="306.563"/>
      <point x="408.416" y="244"/>
      <point x="276" y="244" type="curve" smooth="yes"/>
      <point x="228.778" y="244"/>
      <point x="160.222" y="244"/>
      <point x="97" y="244" type="curve"/>
      <point x="97" y="0" type="line"/>
      <point x="41" y="0" type="line"/>
      <point x="41" y="698" type="line"/>
    </contour>
    <contour>
      <point x="97" y="299" type="line"/>
      <point x="170.333" y="299"/>
      <point x="236.917" y="299"/>
      <point x="281" y="299" type="curve" smooth="yes"/>
      <point x="356.583" y="299"/>
      <point x="418" y="319.317"/>
      <point x="418" y="472" type="curve" smooth="yes"/>
      <point x="418" y="613.433"/>
      <point x="358.833" y="645"/>
      <point x="281" y="645" type="curve" smooth="yes"/>
      <point x="97" y="645" type="line"/>
    </contour>
  </outline>
</glyph>
<glyph name="U" format="1">
  <advance width="496"/>
  <unicode hex="0055"/>
  <outline>
    <contour>
      <point x="456" y="185" type="line" smooth="yes"/>
      <point x="456" y="117.667"/>
      <point x="435.333" y="68"/>
      <point x="394" y="36" type="curve" smooth="yes"/>
      <point x="354" y="4.66667"/>
      <point x="305.333" y="-11"/>
      <point x="248" y="-11" type="curve" smooth="yes"/>
      <point x="190" y="-11"/>
      <point x="140.333" y="4.66667"/>
      <point x="99" y="36" type="curve"/>
      <point x="58.3333" y="68.6667"/>
      <point x="38" y="118.333"/>
      <point x="38" y="185" type="curve" smooth="yes"/>
      <point x="38" y="698" type="line"/>
      <point x="93" y="698" type="line"/>
      <point x="93" y="186" type="line" smooth="yes"/>
      <point x="93" y="136"/>
      <point x="109" y="98.6667"/>
      <point x="141" y="74" type="curve" smooth="yes"/>
      <point x="167.667" y="52.6667"/>
      <point x="203" y="42"/>
      <point x="247" y="42" type="curve" smooth="yes"/>
      <point x="295" y="42"/>
      <point x="335.333" y="54.3333"/>
      <point x="362" y="81" type="curve" smooth="yes"/>
      <point x="386" y="106.333"/>
      <point x="401" y="140.667"/>
      <point x="401" y="186" type="curve" smooth="yes"/>
      <point x="401" y="698" type="line"/>
      <point x="456" y="698" type="line"/>
    </contour>
  </outline>
</glyph>
<glyph name="a" format="1">
  <advance width="446"/>
  <unicode hex="0061"/>
  <outline>
    <contour>
      <point x="354" y="349" type="curve"/>
      <point x="354" y="403.667"/>
      <point x="333.333" y="431.667"/>
      <point x="296" y="449" type="curve" smooth="yes"/>
      <point x="270.667" y="461"/>
      <point x="237.333" y="464"/>
      <point x="200" y="464" type="curve"/>
      <point x="202" y="507" type="line"/>
      <point x="248.667" y="507"/>
      <point x="297.667" y="504"/>
      <point x="339" y="480" type="curve" smooth="yes"/>
      <point x="407.609" y="440.586"/>
      <point x="410" y="357.655"/>
      <point x="410" y="287" type="curve" smooth="yes"/>
      <point x="410" y="0" type="line"/>
      <point x="412" y="-0.1176"/>
      <point x="300.667" y="-8.78427"/>
      <point x="252" y="-10" type="curve" smooth="yes"/>
      <point x="124.745" y="-13.9767"/>
      <point x="26" y="21.0147"/>
      <point x="26" y="168" type="curve" smooth="yes"/>
      <point x="26" y="251" type="line" smooth="yes"/>
      <point x="26" y="363.13"/>
      <point x="99.1299" y="402"/>
      <point x="179" y="402" type="curve" smooth="yes"/>
      <point x="244.333" y="402"/>
      <point x="307.333" y="375.667"/>
    </contour>
    <contour>
      <point x="354" y="302" type="line"/>
      <point x="300.811" y="329.58"/>
      <point x="237.101" y="354"/>
      <point x="174" y="354" type="curve" smooth="yes"/>
      <point x="139" y="354"/>
      <point x="81" y="339.25"/>
      <point x="81" y="249" type="curve" smooth="yes"/>
      <point x="81" y="175" type="line" smooth="yes"/>
      <point x="81" y="79.8953"/>
      <point x="114.589" y="31.7994"/>
      <point x="248" y="38" type="curve" smooth="yes"/>
      <point x="313.261" y="41.0332"/>
      <point x="353.882" y="46.3399"/>
      <point x="354" y="46" type="curve"/>
    </contour>
  </outline>
</glyph>
<glyph name="c" format="1">
  <advance width="380"/>
  <unicode hex="0063"/>
  <outline>
    <contour>
      <point x="333" y="430" type="line"/>
      <point x="285" y="452.667"/>
      <point x="217.667" y="463.667"/>
      <point x="175" y="453" type="curve" smooth="yes"/>
      <point x="145.667" y="446.333"/>
      <point x="119" y="426"/>
      <point x="103" y="394" type="curve" smooth="yes"/>
      <point x="91" y="371.333"/>
      <point x="84" y="341"/>
      <point x="84" y="305" type="curve" smooth="yes"/>
      <point x="84" y="185" type="line" smooth="yes"/>
      <point x="84" y="119.667"/>
      <point x="99.6667" y="70.6667"/>
      <point x="153" y="52" type="curve"/>
      <point x="215" y="24.5556"/>
      <point x="341" y="55.7778"/>
      <point x="339" y="55" type="curve"/>
      <point x="350" y="5" type="line"/>
      <point x="283.333" y="-12.3333"/>
      <point x="201" y="-17.6667"/>
      <point x="141" y="1" type="curve"/>
      <point x="73" y="23.6667"/>
      <point x="29" y="75.6667"/>
      <point x="29" y="173" type="curve" smooth="yes"/>
      <point x="29" y="318" type="line"/>
      <point x="31.6667" y="362"/>
      <point x="38.6667" y="394"/>
      <point x="56" y="426" type="curve"/>
      <point x="82.6667" y="470"/>
      <point x="120.667" y="494.667"/>
      <point x="166" y="504" type="curve" smooth="yes"/>
      <point x="224.667" y="516"/>
      <point x="290.667" y="502.667"/>
      <point x="348" y="476" type="curve"/>
    </contour>
  </outline>
</glyph>
<glyph name="f" format="1">
  <advance width="248"/>
  <unicode hex="0066"/>
  <outline>
    <contour>
      <point x="214" y="656" type="line"/>
      <point x="204.667" y="657.333"/>
      <point x="196" y="658"/>
      <point x="188" y="658" type="curve" smooth="yes"/>
      <point x="127.35" y="658"/>
      <point x="95" y="620.883"/>
      <point x="95" y="548" type="curve" smooth="yes"/>
      <point x="95" y="498" type="line"/>
      <point x="209" y="498" type="line"/>
      <point x="186" y="446" type="line"/>
      <point x="95" y="446" type="line"/>
      <point x="95" y="0" type="line"/>
      <point x="39" y="0" type="line"/>
      <point x="39" y="548" type="line" smooth="yes"/>
      <point x="39" y="673.793"/>
      <point x="122.098" y="709.967"/>
      <point x="187" y="708" type="curve"/>
      <point x="200.333" y="708"/>
      <point x="212.333" y="707.667"/>
      <point x="223" y="705" type="curve"/>
    </contour>
  </outline>
</glyph>
<glyph name="g" format="1">
  <advance width="440"/>
  <unicode hex="0067"/>
  <outline>
    <contour>
      <point x="400" y="-64" type="line" smooth="yes"/>
      <point x="400" y="-144"/>
      <point x="368" y="-186"/>
      <point x="292" y="-210" type="curve"/>
      <point x="276" y="-167" type="line"/>
      <point x="320.123" y="-148.95"/>
      <point x="343" y="-116.174"/>
      <point x="343" y="-63" type="curve" smooth="yes"/>
      <point x="343" y="61" type="line"/>
      <point x="320.545" y="20.1725"/>
      <point x="261.764" y="-12"/>
      <point x="202" y="-12" type="curve" smooth="yes"/>
      <point x="90" y="-12"/>
      <point x="31" y="53.6667"/>
      <point x="31" y="175" type="curve" smooth="yes"/>
      <point x="31" y="345" type="line" smooth="yes"/>
      <point x="31" y="450.333"/>
      <point x="91.6667" y="513.333"/>
      <point x="201" y="508" type="curve" smooth="yes"/>
      <point x="249.576" y="505.976"/>
      <point x="298.784" y="487.177"/>
      <point x="343" y="451" type="curve"/>
      <point x="343" y="498" type="line"/>
      <point x="400" y="498" type="line"/>
    </contour>
    <contour>
      <point x="343" y="392" type="line"/>
      <point x="315.747" y="432.879"/>
      <point x="255.356" y="454.149"/>
      <point x="213" y="458" type="curve" smooth="yes"/>
      <point x="151.064" y="463.994"/>
      <point x="87" y="432.088"/>
      <point x="87" y="342" type="curve" smooth="yes"/>
      <point x="87" y="166" type="line" smooth="yes"/>
      <point x="87" y="82"/>
      <point x="129" y="40"/>
      <point x="205" y="40" type="curve" smooth="yes"/>
      <point x="281.25" y="40"/>
      <point x="343" y="88.3833"/>
      <point x="343" y="173" type="curve" smooth="yes"/>
    </contour>
  </outline>
</glyph>
<glyph name="h" format="1">
  <advance width="443"/>
  <unicode hex="0068"/>
  <outline>
    <contour>
      <point x="97" y="465" type="line"/>
      <point x="135.667" y="491.667"/>
      <point x="186.667" y="508"/>
      <point x="236" y="508" type="curve" smooth="yes"/>
      <point x="346.251" y="508"/>
      <point x="410" y="449.892"/>
      <point x="410" y="345" type="curve" smooth="yes"/>
      <point x="410" y="0" type="line"/>
      <point x="354" y="0" type="line"/>
      <point x="354" y="342" type="line" smooth="yes"/>
      <point x="354" y="432.833"/>
      <point x="288.5" y="458"/>
      <point x="225" y="458" type="curve" smooth="yes"/>
      <point x="179.667" y="458"/>
      <point x="138.333" y="446.667"/>
      <point x="97" y="424" type="curve"/>
      <point x="97" y="0" type="line"/>
      <point x="41" y="0" type="line"/>
      <point x="41" y="698" type="line"/>
      <point x="97" y="698" type="line"/>
    </contour>
  </outline>
</glyph>
<glyph name="l" format="1">
  <advance width="139"/>
  <unicode hex="006C"/>
  <outline>
    <contour>
      <point x="41" y="0" type="line"/>
      <point x="41" y="698" type="line"/>
      <point x="96" y="698" type="line"/>
      <point x="96" y="0" type="line"/>
    </contour>
  </outline>
</glyph>
<glyph name="m" format="1">
  <advance width="715"/>
  <unicode hex="006D"/>
  <outline>
    <contour>
      <point x="626" y="341" type="line" smooth="yes"/>
      <point x="626" y="431.833"/>
      <point x="568.567" y="457"/>
      <point x="505" y="457" type="curve" smooth="yes"/>
      <point x="466.333" y="457"/>
      <point x="423" y="446.333"/>
      <point x="375" y="417" type="curve"/>
      <point x="383" y="395.667"/>
      <point x="386" y="371"/>
      <point x="386" y="343" type="curve" smooth="yes"/>
      <point x="386" y="0" type="line"/>
      <point x="334" y="0" type="line"/>
      <point x="334" y="341" type="line" smooth="yes"/>
      <point x="334" y="431.833"/>
      <point x="276.567" y="457"/>
      <point x="213" y="457" type="curve" smooth="yes"/>
      <point x="167.667" y="457"/>
      <point x="135.333" y="446"/>
      <point x="94" y="422" type="curve"/>
      <point x="94" y="0" type="line"/>
      <point x="38" y="0" type="line"/>
      <point x="38" y="498" type="line"/>
      <point x="94" y="498" type="line"/>
      <point x="94" y="464" type="line"/>
      <point x="134.659" y="490.232"/>
      <point x="173.494" y="507"/>
      <point x="223" y="507" type="curve" smooth="yes"/>
      <point x="285.667" y="507"/>
      <point x="331.333" y="487"/>
      <point x="358" y="451" type="curve"/>
      <point x="401.988" y="484.259"/>
      <point x="459.449" y="507"/>
      <point x="515" y="507" type="curve" smooth="yes"/>
      <point x="625.926" y="507"/>
      <point x="679" y="449.563"/>
      <point x="679" y="343" type="curve" smooth="yes"/>
      <point x="679" y="0" type="line"/>
      <point x="626" y="0" type="line"/>
    </contour>
  </outline>
</glyph>
<glyph name="o" format="1">
  <advance width="429"/>
  <unicode hex="006F"/>
  <outline>
    <contour>
      <point x="398" y="184" type="line" smooth="yes"/>
      <point x="398" y="67.9269"/>
      <point x="337.721" y="-10"/>
      <point x="217" y="-10" type="curve" smooth="yes"/>
      <point x="92.5667" y="-10"/>
      <point x="29" y="76.2667"/>
      <point x="29" y="184" type="curve" smooth="yes"/>
      <point x="29" y="315" type="line" smooth="yes"/>
      <point x="29" y="441.667"/>
      <point x="96.3333" y="510"/>
      <point x="215" y="510" type="curve" smooth="yes"/>
      <point x="333.667" y="510"/>
      <point x="398" y="436.333"/>
      <point x="398" y="315" type="curve" smooth="yes"/>
    </contour>
    <contour>
      <point x="342" y="315" type="line" smooth="yes"/>
      <point x="342" y="411"/>
      <point x="303.667" y="460"/>
      <point x="217" y="460" type="curve" smooth="yes"/>
      <point x="129" y="460"/>
      <point x="85" y="411"/>
      <point x="85" y="315" type="curve" smooth="yes"/>
      <point x="85" y="174" type="line" smooth="yes"/>
      <point x="85" y="94.5667"/>
      <point x="136.2" y="40"/>
      <point x="217" y="40" type="curve" smooth="yes"/>
      <point x="300.333" y="40"/>
      <point x="342" y="92.3167"/>
      <point x="342" y="174" type="curve" smooth="yes"/>
    </contour>
  </outline>
</glyph>
<glyph name="p" format="1">
  <advance width="441"/>
  <unicode hex="0070"/>
  <outline>
    <contour>
      <point x="408" y="175" type="line" smooth="yes"/>
      <point x="408" y="53.6667"/>
      <point x="348.667" y="-12"/>
      <point x="238" y="-12" type="curve" smooth="yes"/>
      <point x="175.513" y="-12"/>
      <point x="120.464" y="20.2275"/>
      <point x="96" y="61" type="curve"/>
      <point x="96" y="-211" type="line"/>
      <point x="39" y="-187" type="line"/>
      <point x="39" y="498" type="line"/>
      <point x="96" y="498" type="line"/>
      <point x="96" y="451" type="line"/>
      <point x="140.216" y="487.177"/>
      <point x="189.424" y="505.976"/>
      <point x="238" y="508" type="curve" smooth="yes"/>
      <point x="348.667" y="513.333"/>
      <point x="408" y="450.333"/>
      <point x="408" y="345" type="curve" smooth="yes"/>
    </contour>
    <contour>
      <point x="351" y="342" type="line" smooth="yes"/>
      <point x="351" y="432.119"/>
      <point x="289.521" y="463.955"/>
      <point x="226" y="458" type="curve" smooth="yes"/>
      <point x="182.565" y="454.051"/>
      <point x="125.178" y="432.849"/>
      <point x="96" y="392" type="curve"/>
      <point x="96" y="173" type="line" smooth="yes"/>
      <point x="96" y="88.3833"/>
      <point x="158.083" y="40"/>
      <point x="235" y="40" type="curve" smooth="yes"/>
      <point x="309.667" y="40"/>
      <point x="351" y="82"/>
      <point x="351" y="166" type="curve" smooth="yes"/>
    </contour>
  </outline>
</glyph>
<glyph name="q" format="1">
  <advance width="440"/>
  <unicode hex="0071"/>
  <outline>
    <contour>
      <point x="343" y="62" type="line"/>
      <point x="320.545" y="21.1725"/>
      <point x="261.764" y="-11"/>
      <point x="202" y="-11" type="curve" smooth="yes"/>
      <point x="90" y="-11"/>
      <point x="31" y="54.6667"/>
      <point x="31" y="176" type="curve" smooth="yes"/>
      <point x="31" y="345" type="line" smooth="yes"/>
      <point x="31" y="451.667"/>
      <point x="91.6667" y="514.333"/>
      <point x="201" y="509" type="curve" smooth="yes"/>
      <point x="249.576" y="506.976"/>
      <point x="298.784" y="488.177"/>
      <point x="343" y="452" type="curve"/>
      <point x="343" y="498" type="line"/>
      <point x="400" y="498" type="line"/>
      <point x="400" y="-211" type="line"/>
      <point x="343" y="-188" type="line"/>
    </contour>
    <contour>
      <point x="343" y="393" type="line"/>
      <point x="314.959" y="435.061"/>
      <point x="255.944" y="455.096"/>
      <point x="213" y="459" type="curve"/>
      <point x="151.065" y="462.996"/>
      <point x="87" y="432.887"/>
      <point x="87" y="343" type="curve" smooth="yes"/>
      <point x="87" y="167" type="line" smooth="yes"/>
      <point x="87" y="84.3333"/>
      <point x="129" y="41"/>
      <point x="205" y="41" type="curve" smooth="yes"/>
      <point x="282.177" y="41"/>
      <point x="343" y="87.7706"/>
      <point x="343" y="173" type="curve" smooth="yes"/>
    </contour>
  </outline>
</glyph>
<glyph name="r" format="1">
  <advance width="332"/>
  <unicode hex="0072"/>
  <outline>
    <contour>
      <point x="305" y="459" type="line"/>
      <point x="305" y="459"/>
      <point x="284.333" y="461.333"/>
      <point x="263" y="460" type="curve" smooth="yes"/>
      <point x="207.495" y="458.018"/>
      <point x="129.977" y="432.616"/>
      <point x="94" y="408" type="curve"/>
      <point x="94" y="0" type="line"/>
      <point x="38" y="0" type="line"/>
      <point x="38" y="499" type="line"/>
      <point x="94" y="499" type="line"/>
      <point x="94" y="466" type="line"/>
      <point x="143.333" y="488.667"/>
      <point x="192" y="507.333"/>
      <point x="264" y="510" type="curve"/>
      <point x="288" y="512.667"/>
      <point x="309" y="507"/>
      <point x="309" y="507" type="curve"/>
    </contour>
  </outline>
</glyph>
<glyph name="s" format="1">
  <advance width="416"/>
  <unicode hex="0073"/>
  <outline>
    <contour>
      <point x="322" y="438" type="line"/>
      <point x="296" y="454"/>
      <point x="257" y="463"/>
      <point x="224" y="463" type="curve" smooth="yes"/>
      <point x="165" y="463"/>
      <point x="93" y="436"/>
      <point x="104" y="364" type="curve" smooth="yes"/>
      <point x="108" y="341.333"/>
      <point x="125.333" y="324.333"/>
      <point x="148" y="311" type="curve" smooth="yes"/>
      <point x="172" y="297.667"/>
      <point x="202.333" y="286.667"/>
      <point x="233" y="276" type="curve" smooth="yes"/>
      <point x="305" y="250"/>
      <point x="386" y="214"/>
      <point x="386" y="125" type="curve" smooth="yes"/>
      <point x="386" y="75"/>
      <point x="359" y="35"/>
      <point x="320" y="10" type="curve" smooth="yes"/>
      <point x="290.667" y="-8.66667"/>
      <point x="252.993" y="-18"/>
      <point x="213" y="-18" type="curve" smooth="yes"/>
      <point x="179.646" y="-18"/>
      <point x="145.333" y="-10.6667"/>
      <point x="112" y="4" type="curve" smooth="yes"/>
      <point x="81.3333" y="18.6667"/>
      <point x="51.3333" y="38.6667"/>
      <point x="26" y="68" type="curve"/>
      <point x="57" y="100" type="line"/>
      <point x="101" y="56"/>
      <point x="151" y="34"/>
      <point x="213" y="34" type="curve" smooth="yes"/>
      <point x="264" y="34"/>
      <point x="334" y="61"/>
      <point x="334" y="122" type="curve" smooth="yes"/>
      <point x="334" y="151.355"/>
      <point x="321.667" y="172"/>
      <point x="299" y="188" type="curve" smooth="yes"/>
      <point x="276.333" y="205.333"/>
      <point x="243.667" y="217.667"/>
      <point x="209" y="231" type="curve" smooth="yes"/>
      <point x="174" y="244"/>
      <point x="138" y="256"/>
      <point x="107" y="277" type="curve" smooth="yes"/>
      <point x="78.2238" y="297.274"/>
      <point x="55.8839" y="323.161"/>
      <point x="52" y="362" type="curve" smooth="yes"/>
      <point x="46.5459" y="416.541"/>
      <point x="71.3333" y="456.667"/>
      <point x="110" y="482" type="curve" smooth="yes"/>
      <point x="138" y="500.667"/>
      <point x="174.345" y="510"/>
      <point x="213" y="510" type="curve" smooth="yes"/>
      <point x="253.728" y="510"/>
      <point x="295.519" y="504.689"/>
      <point x="345" y="475" type="curve"/>
    </contour>
  </outline>
</glyph>
<glyph name="t" format="1">
  <advance width="240"/>
  <unicode hex="0074"/>
  <outline>
    <contour>
      <point x="95" y="132" type="line" smooth="yes"/>
      <point x="95" y="78.6667"/>
      <point x="117" y="44.6667"/>
      <point x="161" y="30" type="curve"/>
      <point x="144" y="-13" type="line"/>
      <point x="70.6667" y="8.33333"/>
      <point x="39" y="53.3333"/>
      <point x="39" y="132" type="curve" smooth="yes"/>
      <point x="39" y="698" type="line"/>
      <point x="95" y="698" type="line"/>
      <point x="95" y="499" type="line"/>
      <point x="215" y="499" type="line"/>
      <point x="191" y="447" type="line"/>
      <point x="95" y="447" type="line"/>
    </contour>
  </outline>
</glyph>
<glyph name="w" format="1">
  <advance width="706"/>
  <unicode hex="0077"/>
  <outline>
    <contour>
      <point x="380" y="498" type="line"/>
      <point x="490" y="57" type="line"/>
      <point x="623" y="498" type="line"/>
      <point x="682" y="498" type="line"/>
      <point x="527" y="0" type="line"/>
      <point x="450" y="0" type="line"/>
      <point x="350" y="404" type="line"/>
      <point x="248" y="0" type="line"/>
      <point x="171" y="0" type="line"/>
      <point x="19" y="498" type="line"/>
      <point x="77" y="498" type="line"/>
      <point x="211" y="57" type="line"/>
      <point x="323" y="498" type="line"/>
    </contour>
  </outline>
</glyph>
<glyph name="sterling" format="1">
  <advance width="427"/>
  <unicode hex="00A3"/>
  <outline>
    <contour>
      <point x="113" y="53" type="line" smooth="yes"/>
      <point x="197" y="53"/>
      <point x="282" y="97"/>
      <point x="286" y="189" type="curve" smooth="yes"/>
      <point x="288" y="223"/>
      <point x="275" y="259"/>
      <point x="247" y="291" type="curve" smooth="yes"/>
      <point x="205" y="339" type="line"/>
      <point x="34" y="339" type="line"/>
      <point x="34" y="396" type="line"/>
      <point x="154" y="396" type="line"/>
      <point x="134" y="419" type="line" smooth="yes"/>
      <point x="93" y="466"/>
      <point x="62" y="515"/>
      <point x="64" y="568" type="curve" smooth="yes"/>
      <point x="64" y="654"/>
      <point x="137" y="706"/>
      <point x="219" y="706" type="curve" smooth="yes"/>
      <point x="266" y="706"/>
      <point x="316" y="693"/>
      <point x="360" y="669" type="curve"/>
      <point x="341" y="620" type="line"/>
      <point x="299.667" y="645.333"/>
      <point x="253.439" y="658.44"/>
      <point x="212" y="654" type="curve" smooth="yes"/>
      <point x="160" y="648"/>
      <point x="124" y="614"/>
      <point x="122" y="569" type="curve" smooth="yes"/>
      <point x="119" y="526"/>
      <point x="149" y="483"/>
      <point x="176" y="453" type="curve" smooth="yes"/>
      <point x="226" y="396" type="line"/>
      <point x="392" y="396" type="line"/>
      <point x="392" y="339" type="line"/>
      <point x="277" y="339" type="line"/>
      <point x="289" y="324" type="line" smooth="yes"/>
      <point x="322" y="282"/>
      <point x="341" y="236"/>
      <point x="341" y="190" type="curve" smooth="yes"/>
      <point x="341" y="139"/>
      <point x="314" y="80"/>
      <point x="270" y="53" type="curve"/>
      <point x="392" y="53" type="line"/>
      <point x="392" y="0" type="line"/>
      <point x="34" y="0" type="line"/>
      <point x="34" y="53" type="line"/>
    </contour>
  </outline>
</glyph>
<glyph name="dieresis" format="1">
  <advance width="266"/>
  <unicode hex="00A8"/>
  <outline>
    <contour>
      <point x="54" y="740" type="curve" smooth="yes"/>
      <point x="72.6667" y="740"/>
      <point x="88" y="724.667"/>
      <point x="88" y="706" type="curve" smooth="yes"/>
      <point x="88" y="687.333"/>
      <point x="72.6667" y="673"/>
      <point x="54" y="673" type="curve" smooth="yes"/>
      <point x="36.6667" y="673"/>
      <point x="21" y="687.333"/>
      <point x="21" y="706" type="curve" smooth="yes"/>
      <point x="21" y="724.667"/>
      <point x="36.6667" y="740"/>
    </contour>
    <contour>
      <point x="212" y="740" type="curve" smooth="yes"/>
      <point x="230.667" y="740"/>
      <point x="245" y="724.667"/>
      <point x="245" y="706" type="curve" smooth="yes"/>
      <point x="245" y="687.333"/>
      <point x="230.667" y="673"/>
      <point x="212" y="673" type="curve" smooth="yes"/>
      <point x="193.333" y="673"/>
      <point x="179" y="687.333"/>
      <point x="179" y="706" type="curve" smooth="yes"/>
      <point x="179" y="724.667"/>
      <point x="193.333" y="740"/>
    </contour>
  </outline>
</glyph>
<glyph name="mu" format="1">
  <advance width="464"/>
  <unicode hex="00B5"/>
  <outline>
    <contour>
      <point x="408" y="94" type="line"/>
      <point x="407.25" y="51.8333"/>
      <point x="436.5" y="25.4167"/>
      <point x="435" y="26" type="curve"/>
      <point x="408" y="-6" type="line"/>
      <point x="408.5" y="-5.0833"/>
      <point x="381.25" y="1.83337"/>
      <point x="360" y="44" type="curve"/>
      <point x="339.433" y="9.03667"/>
      <point x="287.38" y="-12"/>
      <point x="237.684" y="-12" type="curve" smooth="yes"/>
      <point x="131.618" y="-12"/>
      <point x="95.75" y="46.3334"/>
      <point x="96" y="44" type="curve"/>
      <point x="96" y="-209" type="line"/>
      <point x="39" y="-186" type="line"/>
      <point x="39" y="499" type="line"/>
      <point x="96" y="499" type="line"/>
      <point x="96" y="151.484" type="line" smooth="yes"/>
      <point x="96" y="93.3846"/>
      <point x="146.559" y="43"/>
      <point x="235.158" y="43" type="curve" smooth="yes"/>
      <point x="303.158" y="43"/>
      <point x="351" y="78.3333"/>
      <point x="351" y="153" type="curve" smooth="yes"/>
      <point x="351" y="496" type="line"/>
      <point x="408" y="508" type="line"/>
    </contour>
  </outline>
</glyph>
<glyph name="cedilla" format="1">
  <advance width="266"/>
  <unicode hex="00B8"/>
  <outline>
    <contour>
      <point x="165" y="0" type="line"/>
      <point x="139" y="-44" type="line"/>
      <point x="147" y="-42.6667"/>
      <point x="155.961" y="-42.5478"/>
      <point x="165" y="-42" type="curve" smooth="yes"/>
      <point x="230.983" y="-38"/>
      <point x="270" y="-79.6558"/>
      <point x="270" y="-135" type="curve" smooth="yes"/>
      <point x="270" y="-201.01"/>
      <point x="214.201" y="-233"/>
      <point x="155" y="-233" type="curve" smooth="yes"/>
      <point x="109.333" y="-233"/>
      <point x="56.1667" y="-221"/>
      <point x="54" y="-221" type="curve"/>
      <point x="62.434" y="-191.481"/>
      <point x="57.566" y="-202.519"/>
      <point x="66" y="-173" type="curve"/>
      <point x="94.0914" y="-177.013"/>
      <point x="122.494" y="-184"/>
      <point x="149" y="-184" type="curve" smooth="yes"/>
      <point x="188.683" y="-184"/>
      <point x="220" y="-174.2"/>
      <point x="220" y="-133" type="curve" smooth="yes"/>
      <point x="220" y="-98.3333"/>
      <point x="196.667" y="-91"/>
      <point x="162" y="-91" type="curve"/>
      <point x="140.667" y="-92.3333"/>
      <point x="114.667" y="-95.3333"/>
      <point x="88" y="-98" type="curve"/>
      <point x="75" y="-69" type="line"/>
      <point x="115" y="0" type="line"/>
    </contour>
  </outline>
</glyph>
<glyph name="Thorn" format="1">
  <advance width="430"/>
  <unicode hex="00DE"/>
  <outline>
    <contour>
      <point x="400" y="289" type="line" smooth="yes"/>
      <point x="400" y="191.667"/>
      <point x="357.333" y="140.667"/>
      <point x="288" y="118" type="curve" smooth="yes"/>
      <point x="234.667" y="100.667"/>
      <point x="159.667" y="102"/>
      <point x="97" y="118" type="curve"/>
      <point x="97" y="0" type="line"/>
      <point x="41" y="0" type="line"/>
      <point x="41" y="698" type="line"/>
      <point x="97" y="698" type="line"/>
      <point x="97" y="599" type="line"/>
      <point x="150.333" y="621.667"/>
      <point x="212.333" y="630.667"/>
      <point x="263" y="620" type="curve" smooth="yes"/>
      <point x="355" y="600"/>
      <point x="400" y="523"/>
      <point x="400" y="435" type="curve" smooth="yes"/>
    </contour>
    <contour>
      <point x="253" y="570" type="curve" smooth="yes"/>
      <point x="214" y="581"/>
      <point x="141.45" y="568.259"/>
      <point x="97" y="547" type="curve"/>
      <point x="97" y="169" type="line"/>
      <point x="118.496" y="166.313"/>
      <point x="218.084" y="144.307"/>
      <point x="276" y="168" type="curve" smooth="yes"/>
      <point x="328" y="188"/>
      <point x="346" y="234.333"/>
      <point x="346" y="301" type="curve" smooth="yes"/>
      <point x="346" y="420" type="line" smooth="yes"/>
      <point x="346" y="484"/>
      <point x="322" y="551"/>
    </contour>
  </outline>
</glyph>
<glyph name="germandbls" format="1">
  <advance width="466"/>
  <unicode hex="00DF"/>
  <outline>
    <contour>
      <point x="96" y="0" type="line"/>
      <point x="39" y="0" type="line"/>
      <point x="39" y="538" type="line" smooth="yes"/>
      <point x="39" y="641"/>
      <point x="87" y="697"/>
      <point x="174" y="700" type="curve" smooth="yes"/>
      <point x="257" y="703"/>
      <point x="302" y="636"/>
      <point x="305" y="572" type="curve" smooth="yes"/>
      <point x="307" y="535"/>
      <point x="296" y="499"/>
      <point x="269" y="477" type="curve"/>
      <point x="271" y="477"/>
      <point x="238" y="477"/>
      <point x="239" y="477" type="curve"/>
      <point x="231" y="465"/>
      <point x="228" y="453"/>
      <point x="230" y="440" type="curve" smooth="yes"/>
      <point x="236" y="401"/>
      <point x="281" y="366"/>
      <point x="328" y="324" type="curve" smooth="yes"/>
      <point x="383" y="276"/>
      <point x="439" y="219"/>
      <point x="439" y="142" type="curve" smooth="yes"/>
      <point x="439" y="40"/>
      <point x="365" y="-7"/>
      <point x="283" y="-11" type="curve" smooth="yes"/>
      <point x="229" y="-13"/>
      <point x="174" y="4"/>
      <point x="134" y="36" type="curve"/>
      <point x="161" y="79" type="line"/>
      <point x="195" y="52"/>
      <point x="233" y="43"/>
      <point x="274" y="43" type="curve" smooth="yes"/>
      <point x="330" y="43"/>
      <point x="381" y="77"/>
      <point x="381" y="144" type="curve" smooth="yes"/>
      <point x="381" y="204"/>
      <point x="330" y="250"/>
      <point x="278" y="295" type="curve" smooth="yes"/>
      <point x="228" y="338"/>
      <point x="178" y="381"/>
      <point x="173" y="434" type="curve" smooth="yes"/>
      <point x="171" y="457"/>
      <point x="175" y="482"/>
      <point x="190" y="508" type="curve"/>
      <point x="235" y="508"/>
      <point x="252" y="542"/>
      <point x="250" y="577" type="curve" smooth="yes"/>
      <point x="248" y="613"/>
      <point x="221" y="647"/>
      <point x="179" y="647" type="curve" smooth="yes"/>
      <point x="123" y="647"/>
      <point x="96" y="611"/>
      <point x="96" y="541" type="curve" smooth="yes"/>
    </contour>
  </outline>
</glyph>
<glyph name="ae" format="1">
  <advance width="747"/>
  <unicode hex="00E6"/>
  <outline>
    <contour>
      <point x="413" y="133" type="line" smooth="yes"/>
      <point x="413" y="37.8918"/>
      <point x="492.286" y="36"/>
      <point x="524" y="36" type="curve" smooth="yes"/>
      <point x="577.333" y="36"/>
      <point x="619.667" y="51.3333"/>
      <point x="669" y="78" type="curve"/>
      <point x="691" y="35" type="line"/>
      <point x="641.667" y="4.33333"/>
      <point x="579.667" y="-10.6667"/>
      <point x="529" y="-12" type="curve"/>
      <point x="499.667" y="-12"/>
      <point x="448.667" y="-11.3333"/>
      <point x="410" y="14" type="curve"/>
      <point x="410" y="0" type="line"/>
      <point x="397.71" y="-3.0726"/>
      <point x="228.508" y="-10"/>
      <point x="206" y="-10" type="curve"/>
      <point x="102.632" y="-4.03646"/>
      <point x="26" y="39.6125"/>
      <point x="26" y="168" type="curve" smooth="yes"/>
      <point x="26" y="251" type="line" smooth="yes"/>
      <point x="26" y="363.13"/>
      <point x="99.1299" y="402"/>
      <point x="179" y="402" type="curve" smooth="yes"/>
      <point x="244.333" y="402"/>
      <point x="307.333" y="375.667"/>
      <point x="354" y="349" type="curve"/>
      <point x="354" y="442.317"/>
      <point x="290.517" y="464"/>
      <point x="200" y="464" type="curve"/>
      <point x="201.333" y="478.667"/>
      <point x="200.667" y="493.667"/>
      <point x="202" y="507" type="curve"/>
      <point x="265.029" y="507"/>
      <point x="347.61" y="497.95"/>
      <point x="383" y="437" type="curve"/>
      <point x="416.333" y="483.667"/>
      <point x="469" y="508"/>
      <point x="541" y="508" type="curve" smooth="yes"/>
      <point x="648.883" y="508"/>
      <point x="717" y="449.633"/>
      <point x="717" y="341" type="curve" smooth="yes"/>
      <point x="717" y="211" type="line"/>
      <point x="413" y="195" type="line"/>
    </contour>
    <contour>
      <point x="354" y="302" type="line"/>
      <point x="300.811" y="329.58"/>
      <point x="237.101" y="354"/>
      <point x="174" y="354" type="curve" smooth="yes"/>
      <point x="139" y="354"/>
      <point x="81" y="339.25"/>
      <point x="81" y="249" type="curve" smooth="yes"/>
      <point x="81" y="175" type="line" smooth="yes"/>
      <point x="81" y="79.8953"/>
      <point x="114.551" y="32.6621"/>
      <point x="248" y="38" type="curve"/>
      <point x="313.216" y="41.8954"/>
      <point x="353.882" y="46.3399"/>
      <point x="354" y="46" type="curve"/>
    </contour>
    <contour>
      <point x="660" y="348" type="line" smooth="yes"/>
      <point x="660" y="438.745"/>
      <point x="581.329" y="461"/>
      <point x="539" y="461" type="curve" smooth="yes"/>
      <point x="452.022" y="461"/>
      <point x="413" y="414.745"/>
      <point x="413" y="308" type="curve" smooth="yes"/>
      <point x="413" y="250" type="line"/>
      <point x="660" y="261" type="line"/>
    </contour>
  </outline>
</glyph>
<glyph name="divide" format="1">
  <advance width="378"/>
  <unicode hex="00F7"/>
  <outline>
    <contour>
      <point x="28" y="355" type="line"/>
      <point x="28" y="409" type="line"/>
      <point x="347" y="409" type="line"/>
      <point x="347" y="355" type="line"/>
    </contour>
    <contour>
      <point x="188" y="544" type="curve" smooth="yes"/>
      <point x="206.667" y="544"/>
      <point x="222" y="528.667"/>
      <point x="222" y="510" type="curve" smooth="yes"/>
      <point x="222" y="492.667"/>
      <point x="206.667" y="477"/>
      <point x="188" y="477" type="curve" smooth="yes"/>
      <point x="169.333" y="477"/>
      <point x="155" y="492.667"/>
      <point x="155" y="510" type="curve" smooth="yes"/>
      <point x="155" y="528.667"/>
      <point x="169.333" y="544"/>
    </contour>
    <contour>
      <point x="188" y="287" type="curve" smooth="yes"/>
      <point x="206.667" y="287"/>
      <point x="222" y="272.667"/>
      <point x="222" y="254" type="curve" smooth="yes"/>
      <point x="222" y="235.333"/>
      <point x="206.667" y="221"/>
      <point x="188" y="221" type="curve" smooth="yes"/>
      <point x="169.333" y="221"/>
      <point x="155" y="235.333"/>
      <point x="155" y="254" type="curve" smooth="yes"/>
      <point x="155" y="272.667"/>
      <point x="169.333" y="287"/>
    </contour>
  </outline>
</glyph>
<glyph name="thorn" format="1">
  <advance width="444"/>
  <unicode hex="00FE"/>
  <outline>
    <contour>
      <point x="97" y="453" type="line"/>
      <point x="135.667" y="490.333"/>
      <point x="178.667" y="507"/>
      <point x="236" y="507" type="curve" smooth="yes"/>
      <point x="346.083" y="507"/>
      <point x="418" y="421.533"/>
      <point x="418" y="310" type="curve" smooth="yes"/>
      <point x="418" y="190.117"/>
      <point x="342.95" y="116"/>
      <point x="232" y="116" type="curve" smooth="yes"/>
      <point x="182.843" y="116"/>
      <point x="123.566" y="142.495"/>
      <point x="97" y="185" type="curve"/>
      <point x="97" y="0" type="line"/>
      <point x="41" y="0" type="line"/>
      <point x="41" y="698" type="line"/>
      <point x="97" y="698" type="line"/>
    </contour>
    <contour>
      <point x="231" y="457" type="curve" smooth="yes"/>
      <point x="160" y="457"/>
      <point x="98" y="415"/>
      <point x="98" y="323" type="curve" smooth="yes"/>
      <point x="98" y="215"/>
      <point x="153" y="169"/>
      <point x="230" y="169" type="curve" smooth="yes"/>
      <point x="309" y="169"/>
      <point x="362" y="217"/>
      <point x="362" y="316" type="curve" smooth="yes"/>
      <point x="362" y="416"/>
      <point x="304" y="457"/>
    </contour>
  </outline>
</glyph>
<glyph name="eng" format="1">
  <advance width="442"/>
  <unicode hex="014B"/>
  <outline>
    <contour>
      <point x="406" y="-45" type="line" smooth="yes"/>
      <point x="406" y="-90.3333"/>
      <point x="396.667" y="-123"/>
      <point x="374" y="-147" type="curve" smooth="yes"/>
      <point x="356.667" y="-165.667"/>
      <point x="334.333" y="-179.333"/>
      <point x="301" y="-190" type="curve"/>
      <point x="284" y="-147" type="line"/>
      <point x="304" y="-140.333"/>
      <point x="319.333" y="-129"/>
      <point x="330" y="-113" type="curve" smooth="yes"/>
      <point x="343.333" y="-95.6667"/>
      <point x="350" y="-73.3333"/>
      <point x="350" y="-44" type="curve" smooth="yes"/>
      <point x="350" y="342" type="line" smooth="yes"/>
      <point x="350" y="432.833"/>
      <point x="284.5" y="458"/>
      <point x="221" y="458" type="curve" smooth="yes"/>
      <point x="175.667" y="458"/>
      <point x="132.667" y="446.667"/>
      <point x="94" y="424" type="curve"/>
      <point x="94" y="0" type="line"/>
      <point x="38" y="0" type="line"/>
      <point x="38" y="498" type="line"/>
      <point x="94" y="498" type="line"/>
      <point x="94" y="465" type="line"/>
      <point x="132.667" y="491.667"/>
      <point x="182.667" y="508"/>
      <point x="232" y="508" type="curve" smooth="yes"/>
      <point x="342.251" y="508"/>
      <point x="406" y="449.892"/>
      <point x="406" y="345" type="curve" smooth="yes"/>
    </contour>
  </outline>
</glyph>
<glyph name="OE" format="1">
  <advance width="762"/>
  <unicode hex="0152"/>
  <outline>
    <contour>
      <point x="397" y="0" type="line"/>
      <point x="397" y="43" type="line"/>
      <point x="360.05" y="8.10315"/>
      <point x="306.593" y="-11"/>
      <point x="245" y="-11" type="curve" smooth="yes"/>
      <point x="126.833" y="-11"/>
      <point x="34" y="56.1333"/>
      <point x="34" y="185" type="curve" smooth="yes"/>
      <point x="34" y="506" type="line" smooth="yes"/>
      <point x="34" y="642"/>
      <point x="114" y="714"/>
      <point x="246" y="714" type="curve" smooth="yes"/>
      <point x="310" y="714"/>
      <point x="362.333" y="694.667"/>
      <point x="397" y="660" type="curve"/>
      <point x="397" y="698" type="line"/>
      <point x="731" y="698" type="line"/>
      <point x="731" y="646" type="line"/>
      <point x="454" y="646" type="line"/>
      <point x="454" y="411" type="line"/>
      <point x="644" y="411" type="line"/>
      <point x="625" y="356" type="line"/>
      <point x="454" y="356" type="line"/>
      <point x="454" y="50" type="line"/>
      <point x="729" y="50" type="line"/>
      <point x="729" y="0" type="line"/>
    </contour>
    <contour>
      <point x="90" y="186" type="line" smooth="yes"/>
      <point x="90" y="90"/>
      <point x="155.4" y="42"/>
      <point x="243" y="42" type="curve" smooth="yes"/>
      <point x="327.402" y="42"/>
      <point x="388.893" y="80.9026"/>
      <point x="397" y="164" type="curve"/>
      <point x="397" y="536" type="line"/>
      <point x="389" y="618.667"/>
      <point x="329.667" y="661"/>
      <point x="243" y="661" type="curve" smooth="yes"/>
      <point x="151" y="661"/>
      <point x="90" y="612.333"/>
      <point x="90" y="515" type="curve" smooth="yes"/>
    </contour>
  </outline>
</glyph>
<glyph name="oe" format="1">
  <advance width="739"/>
  <unicode hex="0153"/>
  <outline>
    <contour>
      <point x="405" y="133" type="line" smooth="yes"/>
      <point x="405" y="62.5791"/>
      <point x="450.443" y="36"/>
      <point x="516" y="36" type="curve" smooth="yes"/>
      <point x="565.333" y="36"/>
      <point x="611.667" y="51.3333"/>
      <point x="661" y="78" type="curve"/>
      <point x="683" y="35" type="line"/>
      <point x="633.667" y="4.33333"/>
      <point x="571.667" y="-10.6667"/>
      <point x="521" y="-12" type="curve"/>
      <point x="461.727" y="-12"/>
      <point x="392.257" y="-0.514603"/>
      <point x="363" y="58" type="curve"/>
      <point x="335" y="15.3333"/>
      <point x="286.333" y="-10"/>
      <point x="217" y="-10" type="curve" smooth="yes"/>
      <point x="92.5667" y="-10"/>
      <point x="29" y="76.2667"/>
      <point x="29" y="184" type="curve" smooth="yes"/>
      <point x="29" y="315" type="line" smooth="yes"/>
      <point x="29" y="441.667"/>
      <point x="96.3333" y="510"/>
      <point x="215" y="510" type="curve" smooth="yes"/>
      <point x="289.667" y="510"/>
      <point x="341.667" y="481"/>
      <point x="371" y="429" type="curve"/>
      <point x="404.007" y="486.763"/>
      <point x="469.291" y="508"/>
      <point x="533" y="508" type="curve" smooth="yes"/>
      <point x="639.329" y="508"/>
      <point x="709" y="450.245"/>
      <point x="709" y="341" type="curve" smooth="yes"/>
      <point x="709" y="211" type="line"/>
      <point x="405" y="195" type="line"/>
    </contour>
    <contour>
      <point x="342" y="315" type="line" smooth="yes"/>
      <point x="342" y="411"/>
      <point x="303.667" y="460"/>
      <point x="217" y="460" type="curve" smooth="yes"/>
      <point x="129" y="460"/>
      <point x="85" y="411"/>
      <point x="85" y="315" type="curve" smooth="yes"/>
      <point x="85" y="174" type="line" smooth="yes"/>
      <point x="85" y="94.5667"/>
      <point x="136.2" y="40"/>
      <point x="217" y="40" type="curve" smooth="yes"/>
      <point x="300.333" y="40"/>
      <point x="342" y="92.3167"/>
      <point x="342" y="174" type="curve" smooth="yes"/>
    </contour>
    <contour>
      <point x="653" y="348" type="line" smooth="yes"/>
      <point x="653" y="418.171"/>
      <point x="600.644" y="461"/>
      <point x="532" y="461" type="curve" smooth="yes"/>
      <point x="453.491" y="461"/>
      <point x="405" y="416.565"/>
      <point x="405" y="337" type="curve" smooth="yes"/>
      <point x="405" y="250" type="line"/>
      <point x="653" y="261" type="line"/>
    </contour>
  </outline>
</glyph>
<glyph name="tbar" format="1">
  <advance width="286"/>
  <unicode hex="0167"/>
  <outline>
    <contour>
      <point x="255" y="302" type="line"/>
      <point x="25" y="302" type="line"/>
      <point x="25" y="355" type="line"/>
      <point x="255" y="355" type="line"/>
    </contour>
    <contour>
      <point x="136" y="132" type="line" smooth="yes"/>
      <point x="136" y="78.6667"/>
      <point x="158" y="44.6667"/>
      <point x="202" y="30" type="curve"/>
      <point x="185" y="-13" type="line"/>
      <point x="111.667" y="8.33333"/>
      <point x="80" y="53.3333"/>
      <point x="80" y="132" type="curve" smooth="yes"/>
      <point x="80" y="698" type="line"/>
      <point x="136" y="698" type="line"/>
      <point x="136" y="499" type="line"/>
      <point x="256" y="499" type="line"/>
      <point x="232" y="447" type="line"/>
      <point x="136" y="447" type="line"/>
    </contour>
  </outline>
</glyph>
<glyph name="dotaccent" format="1">
  <advance width="266"/>
  <unicode hex="02D9"/>
  <outline>
    <contour>
      <point x="133" y="748" type="curve" smooth="yes"/>
      <point x="151.667" y="748"/>
      <point x="166" y="732.667"/>
      <point x="166" y="714" type="curve" smooth="yes"/>
      <point x="166" y="696.667"/>
      <point x="151.667" y="681"/>
      <point x="133" y="681" type="curve" smooth="yes"/>
      <point x="114.333" y="681"/>
      <point x="100" y="696.667"/>
      <point x="100" y="714" type="curve" smooth="yes"/>
      <point x="100" y="732.667"/>
      <point x="114.333" y="748"/>
    </contour>
  </outline>
</glyph>
<glyph name="uni0306" format="1">
  <advance width="266"/>
  <unicode hex="0306"/>
  <outline>
    <contour>
      <point x="245" y="702" type="line"/>
      <point x="245" y="695" type="line" smooth="yes"/>
      <point x="245" y="663"/>
      <point x="232" y="635"/>
      <point x="212" y="615" type="curve" smooth="yes"/>
      <point x="192" y="595"/>
      <point x="164" y="582"/>
      <point x="133" y="582" type="curve" smooth="yes"/>
      <point x="102" y="582"/>
      <point x="74" y="595"/>
      <point x="54" y="615" type="curve" smooth="yes"/>
      <point x="33" y="635"/>
      <point x="20" y="663"/>
      <point x="20" y="695" type="curve" smooth="yes"/>
      <point x="20" y="702" type="line"/>
      <point x="65" y="702" type="line"/>
      <point x="65" y="695" type="line" smooth="yes"/>
      <point x="65" y="658"/>
      <point x="96" y="627"/>
      <point x="133" y="627" type="curve" smooth="yes"/>
      <point x="172" y="627"/>
      <point x="200" y="658"/>
      <point x="200" y="695" type="curve" smooth="yes"/>
      <point x="200" y="702" type="line"/>
    </contour>
  </outline>
</glyph>
<glyph name="Theta" format="1">
  <advance width="490"/>
  <unicode hex="0398"/>
  <outline>
    <contour>
      <point x="34" y="506" type="line" smooth="yes"/>
      <point x="34" y="642"/>
      <point x="114" y="714"/>
      <point x="246" y="714" type="curve" smooth="yes"/>
      <point x="378" y="714"/>
      <point x="454" y="635.667"/>
      <point x="454" y="505" type="curve" smooth="yes"/>
      <point x="454" y="185" type="line" smooth="yes"/>
      <point x="454" y="64.2333"/>
      <point x="368.583" y="-11"/>
      <point x="245" y="-11" type="curve" smooth="yes"/>
      <point x="126.833" y="-11"/>
      <point x="34" y="56.1333"/>
      <point x="34" y="185" type="curve" smooth="yes"/>
    </contour>
    <contour>
      <point x="399" y="515" type="line" smooth="yes"/>
      <point x="399" y="612.333"/>
      <point x="337.667" y="661"/>
      <point x="243" y="661" type="curve" smooth="yes"/>
      <point x="151" y="661"/>
      <point x="90" y="612.333"/>
      <point x="90" y="515" type="curve" smooth="yes"/>
      <point x="90" y="358" type="line"/>
      <point x="399" y="358" type="line"/>
    </contour>
    <contour>
      <point x="243" y="42" type="curve" smooth="yes"/>
      <point x="334.4" y="42"/>
      <point x="399" y="87.75"/>
      <point x="399" y="186" type="curve" smooth="yes"/>
      <point x="399" y="301" type="line"/>
      <point x="90" y="301" type="line"/>
      <point x="90" y="186" type="line" smooth="yes"/>
      <point x="90" y="90"/>
      <point x="155.4" y="42"/>
    </contour>
  </outline>
</glyph>
<glyph name="Lambda" format="1">
  <advance width="545"/>
  <unicode hex="039B"/>
  <outline>
    <contour>
      <point x="271" y="612" type="line"/>
      <point x="81" y="0" type="line"/>
      <point x="21" y="0" type="line"/>
      <point x="245" y="698" type="line"/>
      <point x="298" y="698" type="line"/>
      <point x="525" y="0" type="line"/>
      <point x="465" y="0" type="line"/>
    </contour>
  </outline>
</glyph>
<glyph name="Xi" format="1">
  <advance width="562"/>
  <unicode hex="039E"/>
  <outline>
    <contour>
      <point x="23" y="593" type="line"/>
      <point x="44.3333" y="667.667"/>
      <point x="89.3333" y="698"/>
      <point x="168" y="698" type="curve" smooth="yes"/>
      <point x="492" y="698" type="line"/>
      <point x="471" y="648" type="line"/>
      <point x="168" y="648" type="line" smooth="yes"/>
      <point x="116" y="648"/>
      <point x="83.3333" y="625"/>
      <point x="66" y="577" type="curve"/>
    </contour>
    <contour>
      <point x="415" y="306" type="line"/>
      <point x="149" y="306" type="line"/>
      <point x="149" y="362" type="line"/>
      <point x="415" y="362" type="line"/>
    </contour>
    <contour>
      <point x="386" y="53" type="line" smooth="yes"/>
      <point x="438" y="53"/>
      <point x="471.667" y="76.6667"/>
      <point x="489" y="122" type="curve"/>
      <point x="532" y="106" type="line"/>
      <point x="510.667" y="31.3333"/>
      <point x="466" y="0"/>
      <point x="386" y="0" type="curve" smooth="yes"/>
      <point x="63" y="0" type="line"/>
      <point x="84" y="53" type="line"/>
    </contour>
  </outline>
</glyph>
<glyph name="Sigma" format="1">
  <advance width="521"/>
  <unicode hex="03A3"/>
  <outline>
    <contour>
      <point x="343" y="50" type="line" smooth="yes"/>
      <point x="393.667" y="50"/>
      <point x="433.333" y="75.6667"/>
      <point x="448" y="121" type="curve"/>
      <point x="491" y="106" type="line"/>
      <point x="469.667" y="31.3333"/>
      <point x="425.667" y="0"/>
      <point x="347" y="0" type="curve" smooth="yes"/>
      <point x="25" y="0" type="line"/>
      <point x="250" y="384" type="line"/>
      <point x="41" y="698" type="line"/>
      <point x="468" y="698" type="line"/>
      <point x="449" y="645" type="line"/>
      <point x="141" y="645" type="line"/>
      <point x="317" y="386" type="line"/>
      <point x="117" y="50" type="line"/>
    </contour>
  </outline>
</glyph>
<glyph name="Psi" format="1">
  <advance width="589"/>
  <unicode hex="03A8"/>
  <outline>
    <contour>
      <point x="87" y="395" type="line" smooth="yes"/>
      <point x="87" y="307"/>
      <point x="139" y="263"/>
      <point x="219" y="263" type="curve" smooth="yes"/>
      <point x="263" y="263" type="line"/>
      <point x="263" y="698" type="line"/>
      <point x="320" y="698" type="line"/>
      <point x="320" y="263" type="line"/>
      <point x="370" y="263" type="line" smooth="yes"/>
      <point x="448.667" y="263"/>
      <point x="500" y="307"/>
      <point x="500" y="395" type="curve" smooth="yes"/>
      <point x="500" y="562" type="line"/>
      <point x="501.833" y="658.25"/>
      <point x="454.167" y="690"/>
      <point x="456" y="691" type="curve" smooth="yes"/>
      <point x="500" y="707" type="line"/>
      <point x="536.244" y="682.837"/>
      <point x="556" y="636.88"/>
      <point x="556" y="548" type="curve" smooth="yes"/>
      <point x="556" y="405" type="line" smooth="yes"/>
      <point x="556" y="283.667"/>
      <point x="496.667" y="212"/>
      <point x="370" y="212" type="curve" smooth="yes"/>
      <point x="320" y="212" type="line"/>
      <point x="320" y="0" type="line"/>
      <point x="263" y="0" type="line"/>
      <point x="263" y="212" type="line"/>
      <point x="219" y="212" type="line" smooth="yes"/>
      <point x="93.6667" y="212"/>
      <point x="31" y="283.667"/>
      <point x="31" y="405" type="curve" smooth="yes"/>
      <point x="31" y="698" type="line"/>
      <point x="87" y="698" type="line"/>
    </contour>
  </outline>
</glyph>
<glyph name="alpha" format="1">
  <advance width="438"/>
  <unicode hex="03B1"/>
  <outline>
    <contour>
      <point x="402" y="485" type="line"/>
      <point x="402" y="485"/>
      <point x="395" y="447"/>
      <point x="395" y="399" type="curve" smooth="yes"/>
      <point x="395" y="4" type="line"/>
      <point x="397.105" y="3.8954"/>
      <point x="269.327" y="-2.32682"/>
      <point x="225" y="-4" type="curve" smooth="yes"/>
      <point x="129.27" y="-6.6592"/>
      <point x="31" y="18.4531"/>
      <point x="31" y="168" type="curve" smooth="yes"/>
      <point x="31" y="353" type="line" smooth="yes"/>
      <point x="31" y="471.65"/>
      <point x="103.4" y="506"/>
      <point x="178" y="506" type="curve" smooth="yes"/>
      <point x="231.333" y="506"/>
      <point x="291.667" y="488"/>
      <point x="345" y="463" type="curve"/>
      <point x="345" y="463"/>
      <point x="350" y="488.667"/>
      <point x="358" y="506" type="curve"/>
    </contour>
    <contour>
      <point x="86" y="162" type="line" smooth="yes"/>
      <point x="86" y="87.3333"/>
      <point x="126.333" y="46"/>
      <point x="205" y="46" type="curve"/>
      <point x="276.229" y="46.2222"/>
      <point x="338.673" y="51.7778"/>
      <point x="339" y="52" type="curve"/>
      <point x="339" y="414" type="line"/>
      <point x="273" y="443"/>
      <point x="216.5" y="454"/>
      <point x="176" y="454" type="curve" smooth="yes"/>
      <point x="145" y="454"/>
      <point x="86" y="447.721"/>
      <point x="86" y="350" type="curve" smooth="yes"/>
    </contour>
  </outline>
</glyph>
<glyph name="beta" format="1">
  <advance width="441"/>
  <unicode hex="03B2"/>
  <outline>
    <contour>
      <point x="39" y="520" type="line" smooth="yes"/>
      <point x="39" y="616.367"/>
      <point x="104.45" y="701"/>
      <point x="207" y="701" type="curve" smooth="yes"/>
      <point x="300.333" y="701"/>
      <point x="352.667" y="634.667"/>
      <point x="350" y="544" type="curve" smooth="yes"/>
      <point x="348.667" y="504"/>
      <point x="338" y="448"/>
      <point x="273" y="404" type="curve"/>
      <point x="289" y="404" type="line"/>
      <point x="361.077" y="395.991"/>
      <point x="411" y="357.136"/>
      <point x="411" y="253" type="curve" smooth="yes"/>
      <point x="411" y="168" type="line" smooth="yes"/>
      <point x="411" y="21.0068"/>
      <point x="324.922" y="-13.9668"/>
      <point x="196" y="-10" type="curve"/>
      <point x="172.049" y="-10"/>
      <point x="127.959" y="-4"/>
      <point x="95" y="2.44665" type="curve"/>
      <point x="95" y="-212" type="line"/>
      <point x="39" y="-188" type="line"/>
    </contour>
    <contour>
      <point x="95" y="527" type="curve" smooth="yes"/>
      <point x="95" y="384" type="line"/>
      <point x="171" y="402" type="line" smooth="yes"/>
      <point x="251" y="421"/>
      <point x="288.687" y="477.591"/>
      <point x="293" y="543" type="curve" smooth="yes"/>
      <point x="296.688" y="598.942"/>
      <point x="261.333" y="645"/>
      <point x="204" y="645" type="curve" smooth="yes"/>
      <point x="137.4" y="645"/>
      <point x="95" y="587"/>
    </contour>
    <contour>
      <point x="95" y="51" type="line"/>
      <point x="94.5621" y="51.4379"/>
      <point x="147.987" y="39.6123"/>
      <point x="202" y="38" type="curve" smooth="yes"/>
      <point x="336.001" y="34"/>
      <point x="358" y="87"/>
      <point x="358" y="175" type="curve" smooth="yes"/>
      <point x="358" y="251" type="line" smooth="yes"/>
      <point x="358" y="341.25"/>
      <point x="299.9" y="356"/>
      <point x="262" y="356" type="curve" smooth="yes"/>
      <point x="228.667" y="356"/>
      <point x="178.857" y="349.021"/>
      <point x="146.613" y="340.938" type="curve" smooth="yes"/>
      <point x="95" y="328" type="line"/>
    </contour>
  </outline>
</glyph>
<glyph name="gamma" format="1">
  <advance width="503"/>
  <unicode hex="03B3"/>
  <outline>
    <contour>
      <point x="482" y="477" type="line"/>
      <point x="424.89" y="458.643"/>
      <point x="401" y="398"/>
      <point x="394" y="374" type="curve" smooth="yes"/>
      <point x="264" y="-58" type="line"/>
      <point x="248.08" y="-100.453"/>
      <point x="235.211" y="-195.329"/>
      <point x="115" y="-198" type="curve"/>
      <point x="105" y="-155" type="line"/>
      <point x="159.588" y="-152.978"/>
      <point x="186.878" y="-121.367"/>
      <point x="201" y="-79" type="curve"/>
      <point x="223" y="-6" type="line"/>
      <point x="166.25" y="16.2945"/>
      <point x="145" y="69"/>
      <point x="128" y="128" type="curve" smooth="yes"/>
      <point x="20" y="498" type="line"/>
      <point x="77" y="498" type="line"/>
      <point x="183" y="139" type="line" smooth="yes"/>
      <point x="202" y="75"/>
      <point x="216.333" y="55"/>
      <point x="239" y="43" type="curve"/>
      <point x="344" y="386" type="line" smooth="yes"/>
      <point x="366" y="458"/>
      <point x="387.265" y="496.055"/>
      <point x="445" y="508" type="curve"/>
    </contour>
  </outline>
</glyph>
<glyph name="zeta" format="1">
  <advance width="412"/>
  <unicode hex="03B6"/>
  <outline>
    <contour>
      <point x="387" y="652" type="line"/>
      <point x="388.25" y="651.667"/>
      <point x="309.92" y="600.325"/>
      <point x="231" y="497" type="curve" smooth="yes"/>
      <point x="196.998" y="452.484"/>
      <point x="165.426" y="408.51"/>
      <point x="141" y="364" type="curve" smooth="yes"/>
      <point x="105.418" y="299.161"/>
      <point x="84.6667" y="235"/>
      <point x="82" y="183" type="curve" smooth="yes"/>
      <point x="80.6667" y="141.667"/>
      <point x="94.4695" y="108.516"/>
      <point x="122" y="83" type="curve" smooth="yes"/>
      <point x="163" y="45"/>
      <point x="233.155" y="36.5484"/>
      <point x="381" y="51.7047" type="curve"/>
      <point x="381" y="-209" type="line"/>
      <point x="323" y="-186" type="line"/>
      <point x="323" y="-2" type="line"/>
      <point x="204.105" y="-15.2357"/>
      <point x="125" y="1"/>
      <point x="74" y="50" type="curve" smooth="yes"/>
      <point x="41.8724" y="80.8677"/>
      <point x="24.6667" y="128"/>
      <point x="26" y="184" type="curve" smooth="yes"/>
      <point x="27.3333" y="242.667"/>
      <point x="47.6666" y="312.667"/>
      <point x="93" y="394" type="curve" smooth="yes"/>
      <point x="115.667" y="435.333"/>
      <point x="145.667" y="477"/>
      <point x="183" y="521" type="curve" smooth="yes"/>
      <point x="216.927" y="562.909"/>
      <point x="257.085" y="609.077"/>
      <point x="303" y="651" type="curve"/>
      <point x="94" y="651" type="line"/>
      <point x="94" y="698" type="line"/>
      <point x="365" y="698" type="line"/>
    </contour>
  </outline>
</glyph>
<glyph name="kappa" format="1">
  <advance width="434"/>
  <unicode hex="03BA"/>
  <outline>
    <contour>
      <point x="315" y="118" type="line" smooth="yes"/>
      <point x="349" y="71"/>
      <point x="380" y="47"/>
      <point x="406" y="47" type="curve"/>
      <point x="408" y="-1" type="line"/>
      <point x="337" y="-1"/>
      <point x="292" y="58"/>
      <point x="254" y="111" type="curve" smooth="yes"/>
      <point x="150" y="254" type="line"/>
      <point x="95" y="198" type="line"/>
      <point x="95" y="0" type="line"/>
      <point x="38" y="0" type="line"/>
      <point x="38" y="512" type="line"/>
      <point x="95" y="499" type="line"/>
      <point x="95" y="274" type="line"/>
      <point x="302" y="501" type="line"/>
      <point x="376" y="501" type="line"/>
      <point x="188" y="296" type="line"/>
    </contour>
  </outline>
</glyph>
<glyph name="lambda" format="1">
  <advance width="502"/>
  <unicode hex="03BB"/>
  <outline>
    <contour>
      <point x="397" y="123" type="line" smooth="yes"/>
      <point x="402.818" y="101.666"/>
      <point x="426.458" y="37.8579"/>
      <point x="484" y="20" type="curve"/>
      <point x="472" y="10.6667"/>
      <point x="459" y="-0.333333"/>
      <point x="447" y="-11" type="curve"/>
      <point x="387.274" y="3.41653"/>
      <point x="367.379" y="39.7957"/>
      <point x="345" y="111" type="curve" smooth="yes"/>
      <point x="310.307" y="225.925"/>
      <point x="276.925" y="339.307"/>
      <point x="242" y="454" type="curve"/>
      <point x="219.333" y="442"/>
      <point x="202.667" y="421.667"/>
      <point x="184" y="359" type="curve" smooth="yes"/>
      <point x="148.083" y="239.275"/>
      <point x="114.917" y="118.725"/>
      <point x="79" y="-1" type="curve"/>
      <point x="23" y="-1" type="line"/>
      <point x="58.5973" y="121.613"/>
      <point x="95.0305" y="246.105"/>
      <point x="131" y="370" type="curve"/>
      <point x="149.005" y="428.017"/>
      <point x="168.714" y="481.888"/>
      <point x="225" y="504" type="curve"/>
      <point x="203" y="576" type="line"/>
      <point x="191.129" y="619.528"/>
      <point x="160.247" y="652"/>
      <point x="107" y="652" type="curve"/>
      <point x="117" y="695" type="line"/>
      <point x="237.056" y="692.332"/>
      <point x="251.112" y="597.368"/>
      <point x="267" y="555" type="curve"/>
    </contour>
  </outline>
</glyph>
<glyph name="rho" format="1">
  <advance width="436"/>
  <unicode hex="03C1"/>
  <outline>
    <contour>
      <point x="404" y="170" type="line" smooth="yes"/>
      <point x="404" y="47.3333"/>
      <point x="345.667" y="-18"/>
      <point x="235" y="-18" type="curve" smooth="yes"/>
      <point x="172.621" y="-18"/>
      <point x="115.494" y="14.8854"/>
      <point x="92" y="56" type="curve"/>
      <point x="92" y="-210" type="line"/>
      <point x="35" y="-187" type="line"/>
      <point x="35" y="310" type="line" smooth="yes"/>
      <point x="35" y="436.667"/>
      <point x="103.667" y="506"/>
      <point x="221" y="506" type="curve" smooth="yes"/>
      <point x="339.667" y="506"/>
      <point x="404" y="431.333"/>
      <point x="404" y="310" type="curve" smooth="yes"/>
    </contour>
    <contour>
      <point x="348" y="310" type="line" smooth="yes"/>
      <point x="348" y="407.333"/>
      <point x="308" y="454"/>
      <point x="224" y="454" type="curve" smooth="yes"/>
      <point x="136" y="454"/>
      <point x="92" y="407.333"/>
      <point x="92" y="310" type="curve" smooth="yes"/>
      <point x="92" y="167" type="line" smooth="yes"/>
      <point x="92" y="82.15"/>
      <point x="153.75" y="35"/>
      <point x="230" y="35" type="curve" smooth="yes"/>
      <point x="306" y="35"/>
      <point x="348" y="78"/>
      <point x="348" y="162" type="curve" smooth="yes"/>
    </contour>
  </outline>
</glyph>
<glyph name="chi" format="1">
  <advance width="487"/>
  <unicode hex="03C7"/>
  <outline>
    <contour>
      <point x="376" y="-96" type="line"/>
      <point x="398.667" y="-145.333"/>
      <point x="430.667" y="-163.667"/>
      <point x="484" y="-173" type="curve"/>
      <point x="456" y="-211" type="line"/>
      <point x="402.667" y="-211"/>
      <point x="358.333" y="-179.667"/>
      <point x="325" y="-117" type="curve"/>
      <point x="224" y="91" type="line"/>
      <point x="73" y="-204" type="line"/>
      <point x="21" y="-180" type="line"/>
      <point x="193" y="154" type="line"/>
      <point x="25" y="498" type="line"/>
      <point x="87" y="498" type="line"/>
      <point x="225" y="216" type="line"/>
      <point x="369" y="498" type="line"/>
      <point x="432" y="498" type="line"/>
      <point x="255" y="152" type="line"/>
    </contour>
  </outline>
</glyph>
<glyph name="quotedblbase" format="1">
  <advance width="318"/>
  <unicode hex="201E"/>
  <outline>
    <contour>
      <point x="34" y="-65" type="line"/>
      <point x="54" y="-38.3333"/>
      <point x="62.6667" y="-11.3333"/>
      <point x="64" y="10" type="curve"/>
      <point x="49.3333" y="12.6667"/>
      <point x="37" y="25.6667"/>
      <point x="37" y="43" type="curve" smooth="yes"/>
      <point x="37" y="61.6667"/>
      <point x="51.3333" y="76"/>
      <point x="70" y="76" type="curve" smooth="yes"/>
      <point x="88.6667" y="76"/>
      <point x="102.667" y="63"/>
      <point x="104" y="43" type="curve"/>
      <point x="104" y="-19.7073"/>
      <point x="70.5601" y="-59.8849"/>
      <point x="51" y="-77" type="curve"/>
    </contour>
    <contour>
      <point x="213" y="-65" type="line"/>
      <point x="234.333" y="-38.3333"/>
      <point x="242.667" y="-11.3333"/>
      <point x="244" y="10" type="curve"/>
      <point x="228" y="12.6667"/>
      <point x="216" y="25.6667"/>
      <point x="216" y="43" type="curve" smooth="yes"/>
      <point x="216" y="61.6667"/>
      <point x="231.667" y="76"/>
      <point x="249" y="76" type="curve" smooth="yes"/>
      <point x="267.667" y="76"/>
      <point x="283" y="63"/>
      <point x="283" y="43" type="curve" smooth="yes"/>
      <point x="283" y="-20.7966"/>
      <point x="249.537" y="-58.4632"/>
      <point x="231" y="-77" type="curve"/>
    </contour>
  </outline>
</glyph>
<glyph name="ellipsis" format="1">
  <advance width="488"/>
  <unicode hex="2026"/>
  <outline>
    <contour>
      <point x="68" y="63" type="curve" smooth="yes"/>
      <point x="86.6667" y="63"/>
      <point x="101" y="47.6667"/>
      <point x="101" y="29" type="curve" smooth="yes"/>
      <point x="101" y="11.6667"/>
      <point x="86.6667" y="-4"/>
      <point x="68" y="-4" type="curve" smooth="yes"/>
      <point x="49.3333" y="-4"/>
      <point x="35" y="11.6667"/>
      <point x="35" y="29" type="curve" smooth="yes"/>
      <point x="35" y="47.6667"/>
      <point x="49.3333" y="63"/>
    </contour>
    <contour>
      <point x="243" y="63" type="curve" smooth="yes"/>
      <point x="260.333" y="63"/>
      <point x="276" y="47.6667"/>
      <point x="276" y="29" type="curve" smooth="yes"/>
      <point x="276" y="11.6667"/>
      <point x="260.333" y="-4"/>
      <point x="243" y="-4" type="curve" smooth="yes"/>
      <point x="224.333" y="-4"/>
      <point x="209" y="11.6667"/>
      <point x="209" y="29" type="curve" smooth="yes"/>
      <point x="209" y="47.6667"/>
      <point x="224.333" y="63"/>
    </contour>
    <contour>
      <point x="421" y="63" type="curve" smooth="yes"/>
      <point x="439.667" y="63"/>
      <point x="454" y="47.6667"/>
      <point x="454" y="29" type="curve" smooth="yes"/>
      <point x="454" y="11.6667"/>
      <point x="439.667" y="-4"/>
      <point x="421" y="-4" type="curve" smooth="yes"/>
      <point x="402.333" y="-4"/>
      <point x="388" y="11.6667"/>
      <point x="388" y="29" type="curve" smooth="yes"/>
      <point x="388" y="47.6667"/>
      <point x="402.333" y="63"/>
    </contour>
  </outline>
</glyph>
<glyph name="guilsinglleft" format="1">
  <advance width="283"/>
  <unicode hex="2039"/>
  <outline>
    <contour>
      <point x="27" y="266" type="line"/>
      <point x="213" y="453" type="line"/>
      <point x="250" y="416" type="line"/>
      <point x="100" y="266" type="line"/>
      <point x="248" y="113" type="line"/>
      <point x="213" y="79" type="line"/>
    </contour>
  </outline>
</glyph>
<glyph name="ff" format="1">
  <advance width="494"/>
  <unicode hex="FB00"/>
  <outline>
    <contour>
      <point x="453" y="632" type="line"/>
      <point x="421" y="648"/>
      <point x="392.667" y="648.333"/>
      <point x="366" y="631" type="curve" smooth="yes"/>
      <point x="340.667" y="613.667"/>
      <point x="328" y="586.667"/>
      <point x="328" y="548" type="curve" smooth="yes"/>
      <point x="328" y="498" type="line"/>
      <point x="442" y="498" type="line"/>
      <point x="418" y="446" type="line"/>
      <point x="328" y="446" type="line"/>
      <point x="328" y="0" type="line"/>
      <point x="271" y="0" type="line"/>
      <point x="271" y="560" type="line" smooth="yes"/>
      <point x="271" y="581.333"/>
      <point x="276.333" y="599.333"/>
      <point x="283" y="618" type="curve"/>
      <point x="255" y="636.667"/>
      <point x="226.333" y="649.667"/>
      <point x="201" y="651" type="curve"/>
      <point x="145.653" y="656.93"/>
      <point x="95" y="632.173"/>
      <point x="95" y="548" type="curve" smooth="yes"/>
      <point x="95" y="498" type="line"/>
      <point x="209" y="498" type="line"/>
      <point x="186" y="446" type="line"/>
      <point x="95" y="446" type="line"/>
      <point x="95" y="0" type="line"/>
      <point x="39" y="0" type="line"/>
      <point x="39" y="560" type="line" smooth="yes"/>
      <point x="39" y="643.85"/>
      <point x="99.95" y="704"/>
      <point x="180" y="704" type="curve" smooth="yes"/>
      <point x="229.333" y="704"/>
      <point x="273" y="690"/>
      <point x="313" y="662" type="curve"/>
      <point x="339.667" y="686"/>
      <point x="373.667" y="698"/>
      <point x="407" y="698" type="curve" smooth="yes"/>
      <point x="429.667" y="698"/>
      <point x="457" y="691.667"/>
      <point x="473" y="681" type="curve"/>
    </contour>
  </outline>
</glyph>
<glyph name="fi" format="1">
  <advance width="364"/>
  <unicode hex="FB01"/>
  <outline>
    <contour>
      <point x="39" y="560" type="line"/>
      <point x="35.2288" y="649.523"/>
      <point x="112.007" y="710.967"/>
      <point x="184" y="707" type="curve"/>
      <point x="229.333" y="707"/>
      <point x="270.667" y="691.333"/>
      <point x="304" y="658" type="curve"/>
      <point x="269" y="621" type="line"/>
      <point x="235.667" y="645"/>
      <point x="207.667" y="652"/>
      <point x="185" y="652" type="curve" smooth="yes"/>
      <point x="130.4" y="652"/>
      <point x="95" y="617.5"/>
      <point x="95" y="562" type="curve" smooth="yes"/>
      <point x="95" y="498" type="line"/>
      <point x="209" y="498" type="line"/>
      <point x="186" y="446" type="line"/>
      <point x="95" y="446" type="line"/>
      <point x="95" y="0" type="line"/>
      <point x="39" y="0" type="line"/>
    </contour>
    <contour>
      <point x="325" y="0" type="line"/>
      <point x="268" y="0" type="line"/>
      <point x="268" y="498" type="line"/>
      <point x="325" y="498" type="line"/>
    </contour>
  </outline>
</glyph>
<glyph name="dieresistonoscomb" format="1">
  <advance width="266"/>
  <outline>
    <contour>
      <point x="87" y="690" type="curve" smooth="yes"/>
      <point x="87" y="671.333"/>
      <point x="72.6667" y="657"/>
      <point x="54" y="657" type="curve" smooth="yes"/>
      <point x="35.3333" y="657"/>
      <point x="20" y="671.333"/>
      <point x="20" y="690" type="curve" smooth="yes"/>
      <point x="20" y="708.667"/>
      <point x="35.3333" y="723"/>
      <point x="54" y="723" type="curve" smooth="yes"/>
      <point x="72.6667" y="723"/>
      <point x="87" y="708.667"/>
    </contour>
    <contour>
      <point x="245" y="690" type="curve" smooth="yes"/>
      <point x="245" y="671.333"/>
      <point x="229.667" y="657"/>
      <point x="211" y="657" type="curve" smooth="yes"/>
      <point x="193.667" y="657"/>
      <point x="178" y="671.333"/>
      <point x="178" y="690" type="curve" smooth="yes"/>
      <point x="178" y="708.667"/>
      <point x="193.667" y="723"/>
      <point x="211" y="723" type="curve" smooth="yes"/>
      <point x="229.667" y="723"/>
      <point x="245" y="708.667"/>
    </contour>
    <contour>
      <point x="204" y="813" type="curve"/>
      <point x="151" y="734" type="line"/>
      <point x="115" y="734" type="line"/>
      <point x="153" y="840" type="line" smooth="yes"/>
      <point x="159.667" y="858.667"/>
      <point x="179.667" y="870.667"/>
      <point x="197" y="860" type="curve"/>
      <point x="215.667" y="850.667"/>
      <point x="216" y="827.667"/>
    </contour>
  </outline>
</glyph>
<glyph name="gamma_gamma" format="1">
  <advance width="864"/>
  <outline>
    <contour>
      <point x="436" y="500" type="line"/>
      <point x="265" y="-58" type="line" smooth="yes"/>
      <point x="238" y="-141"/>
      <point x="216" y="-199"/>
      <point x="116" y="-199" type="curve"/>
      <point x="106" y="-156" type="line"/>
      <point x="160" y="-154"/>
      <point x="189" y="-123"/>
      <point x="202" y="-79" type="curve" smooth="yes"/>
      <point x="224" y="-6" type="line"/>
      <point x="167" y="17"/>
      <point x="147" y="69"/>
      <point x="129" y="129" type="curve" smooth="yes"/>
      <point x="20" y="500" type="line"/>
      <point x="77" y="500" type="line"/>
      <point x="184" y="140" type="line" smooth="yes"/>
      <point x="203" y="75"/>
      <point x="217" y="55"/>
      <point x="240" y="43" type="curve"/>
      <point x="379" y="500" type="line"/>
    </contour>
    <contour>
      <point x="845" y="479" type="line"/>
      <point x="787" y="460"/>
      <point x="763" y="399"/>
      <point x="756" y="375" type="curve" smooth="yes"/>
      <point x="626" y="-58" type="line" smooth="yes"/>
      <point x="601" y="-142"/>
      <point x="576" y="-199"/>
      <point x="477" y="-199" type="curve"/>
      <point x="467" y="-156" type="line"/>
      <point x="521" y="-154"/>
      <point x="550" y="-123"/>
      <point x="563" y="-79" type="curve" smooth="yes"/>
      <point x="585" y="-6" type="line"/>
      <point x="528" y="17"/>
      <point x="507" y="69"/>
      <point x="490" y="129" type="curve" smooth="yes"/>
      <point x="381" y="500" type="line"/>
      <point x="438" y="500" type="line"/>
      <point x="545" y="140" type="line" smooth="yes"/>
      <point x="564" y="75"/>
      <point x="578" y="55"/>
      <point x="601" y="43" type="curve"/>
      <point x="706" y="387" type="line" smooth="yes"/>
      <point x="728" y="460"/>
      <point x="750" y="498"/>
      <point x="807" y="510" type="curve"/>
    </contour>
  </outline>
</glyph>
<glyph name="gamma_kappa" format="1">
  <advance width="884"/>
  <outline>
    <contour>
      <point x="498" y="469" type="line"/>
      <point x="434" y="476"/>
      <point x="416" y="443"/>
      <point x="401" y="393" type="curve" smooth="yes"/>
      <point x="265" y="-58" type="line" smooth="yes"/>
      <point x="239" y="-141"/>
      <point x="217" y="-199"/>
      <point x="116" y="-199" type="curve"/>
      <point x="106" y="-156" type="line"/>
      <point x="160" y="-154"/>
      <point x="189" y="-123"/>
      <point x="202" y="-79" type="curve" smooth="yes"/>
      <point x="224" y="-6" type="line"/>
      <point x="167" y="17"/>
      <point x="147" y="69"/>
      <point x="129" y="129" type="curve" smooth="yes"/>
      <point x="20" y="500" type="line"/>
      <point x="77" y="500" type="line"/>
      <point x="184" y="140" type="line" smooth="yes"/>
      <point x="203" y="75"/>
      <point x="217" y="55"/>
      <point x="240" y="43" type="curve"/>
      <point x="351" y="405" type="line" smooth="yes"/>
      <point x="373" y="477"/>
      <point x="418" y="518"/>
      <point x="488" y="512" type="curve"/>
      <point x="498" y="506" type="line"/>
    </contour>
    <contour>
      <point x="765" y="118" type="line" smooth="yes"/>
      <point x="799" y="71"/>
      <point x="830" y="47"/>
      <point x="856" y="47" type="curve"/>
      <point x="858" y="-1" type="line"/>
      <point x="787" y="-1"/>
      <point x="742" y="58"/>
      <point x="704" y="111" type="curve" smooth="yes"/>
      <point x="600" y="254" type="line"/>
      <point x="545" y="198" type="line"/>
      <point x="545" y="0" type="line"/>
      <point x="488" y="0" type="line"/>
      <point x="488" y="512" type="line"/>
      <point x="545" y="499" type="line"/>
      <point x="545" y="274" type="line"/>
      <point x="752" y="501" type="line"/>
      <point x="826" y="501" type="line"/>
      <point x="638" y="296" type="line"/>
    </contour>
  </outline>
</glyph>
<glyph name="uni030A" format="1">
  <advance width="266"/>
  <outline>
    <contour>
      <point x="164" y="773"/>
      <point x="192" y="761"/>
      <point x="213" y="741" type="curve"/>
      <point x="233" y="720"/>
      <point x="246" y="692"/>
      <point x="246" y="660" type="curve" smooth="yes"/>
      <point x="246" y="628"/>
      <point x="233" y="599"/>
      <point x="213" y="579" type="curve" smooth="yes"/>
      <point x="192" y="559"/>
      <point x="164" y="546"/>
      <point x="133" y="546" type="curve" smooth="yes"/>
      <point x="102" y="546"/>
      <point x="73" y="559"/>
      <point x="53" y="579" type="curve" smooth="yes"/>
      <point x="32" y="599"/>
      <point x="19" y="628"/>
      <point x="19" y="660" type="curve" smooth="yes"/>
      <point x="19" y="692"/>
      <point x="32" y="720"/>
      <point x="53" y="741" type="curve" smooth="yes"/>
      <point x="73" y="761"/>
      <point x="102" y="773"/>
      <point x="133" y="773" type="curve" smooth="yes"/>
    </contour>
    <contour>
      <point x="94" y="729"/>
      <point x="63" y="699"/>
      <point x="63" y="660" type="curve" smooth="yes"/>
      <point x="63" y="621"/>
      <point x="94" y="590"/>
      <point x="133" y="590" type="curve" smooth="yes"/>
      <point x="172" y="590"/>
      <point x="202" y="621"/>
      <point x="202" y="660" type="curve" smooth="yes"/>
      <point x="202" y="699"/>
      <point x="172" y="729"/>
      <point x="133" y="729" type="curve" smooth="yes"/>
    </contour>
  </outline>
</glyph>
